<svg width="24" height="24" viewBox="0 0 24 24" fill="none" xmlns="http://www.w3.org/2000/svg">
<g id="basil:like-solid">
<path id="Vector" d="M11.337 20.25C11.1113 20.25 10.8889 20.1955 10.6889 20.091C10.4888 19.9865 10.3169 19.8352 10.188 19.65L5.95598 13.573C5.16128 12.4318 4.80708 11.0413 4.95898 9.659L5.28498 6.698C5.35231 6.08323 5.62595 5.50941 6.06125 5.07011C6.49655 4.63081 7.06785 4.35195 7.68198 4.279L9.79898 4.027C11.415 3.835 13.054 4.002 14.599 4.516C15.1331 4.69357 15.6217 4.98621 16.0303 5.37325C16.439 5.7603 16.7577 6.23232 16.964 6.756L18.673 11.099C18.8606 11.5756 18.9148 12.0944 18.8297 12.5996C18.7445 13.1047 18.5233 13.5771 18.1898 13.9659C17.8563 14.3547 17.4232 14.6453 16.9369 14.8063C16.4506 14.9674 15.9296 14.9929 15.43 14.88L11.532 14.002L12.692 18.501C12.7452 18.7079 12.7504 18.9241 12.7072 19.1333C12.664 19.3425 12.5735 19.539 12.4426 19.7078C12.3117 19.8766 12.144 20.0132 11.9522 20.1072C11.7603 20.2012 11.5506 20.25 11.337 20.25Z" fill="#EC6263"/>
</g>
</svg>
