<svg width="98" height="28" viewBox="0 0 98 28" fill="none" xmlns="http://www.w3.org/2000/svg">
<path d="M45.702 17.5519H40.374L39.384 20H35.748L41.31 7.39995H44.82L50.4 20H46.692L45.702 17.5519ZM44.658 14.924L43.038 10.8919L41.418 14.924H44.658Z" fill="white"/>
<path d="M53.4596 10.2259H49.5896V7.39995H60.8756V10.2259H57.0236V20H53.4596V10.2259Z" fill="white"/>
<path d="M62.2034 7.39995H65.7674V17.174H71.7794V20H62.2034V7.39995Z" fill="white"/>
<path d="M81.7724 17.5519H76.4444L75.4544 20H71.8184L77.3804 7.39995H80.8904L86.4704 20H82.7624L81.7724 17.5519ZM80.7284 14.924L79.1084 10.8919L77.4884 14.924H80.7284Z" fill="white"/>
<path d="M91.9087 20.252C90.8887 20.252 89.8988 20.1259 88.9388 19.874C87.9788 19.622 87.1987 19.2859 86.5988 18.8659L87.7687 16.238C88.3327 16.61 88.9868 16.91 89.7308 17.1379C90.4748 17.3659 91.2067 17.4799 91.9268 17.4799C93.2948 17.4799 93.9788 17.1379 93.9788 16.4539C93.9788 16.094 93.7808 15.83 93.3848 15.662C93.0008 15.4819 92.3767 15.2959 91.5127 15.1039C90.5648 14.8999 89.7728 14.6839 89.1367 14.4559C88.5007 14.216 87.9548 13.8379 87.4987 13.3219C87.0427 12.8059 86.8148 12.1099 86.8148 11.2339C86.8148 10.466 87.0248 9.77595 87.4448 9.16395C87.8647 8.53995 88.4888 8.04795 89.3167 7.68795C90.1567 7.32795 91.1827 7.14795 92.3947 7.14795C93.2227 7.14795 94.0387 7.24395 94.8428 7.43595C95.6468 7.61595 96.3548 7.88595 96.9668 8.24595L95.8688 10.8919C94.6688 10.2439 93.5047 9.91995 92.3768 9.91995C91.6688 9.91995 91.1528 10.0279 90.8288 10.2439C90.5047 10.4479 90.3428 10.7179 90.3428 11.0539C90.3428 11.3899 90.5348 11.6419 90.9188 11.8099C91.3027 11.978 91.9207 12.1519 92.7728 12.3319C93.7327 12.5359 94.5247 12.7579 95.1488 12.9979C95.7848 13.2259 96.3307 13.5979 96.7868 14.1139C97.2548 14.6179 97.4888 15.3079 97.4888 16.1839C97.4888 16.9399 97.2788 17.6239 96.8587 18.2359C96.4388 18.8479 95.8088 19.34 94.9688 19.712C94.1287 20.0719 93.1087 20.252 91.9087 20.252Z" fill="white"/>
<path d="M14 26.6121C14 27.4159 14.6503 28.0751 15.4459 27.9931C22.4985 27.266 28 21.2786 28 14C28 6.72143 22.4985 0.734111 15.4459 0.00697811C14.6503 -0.0754852 14 0.584222 14 1.388V5.26862C14 6.0724 14.6546 6.70882 15.4391 6.86744C18.7489 7.53831 21.2414 10.4764 21.2414 14C21.2414 17.5236 18.7489 20.4618 15.4391 21.1326C14.6546 21.2913 14 21.9282 14 22.7314V26.6121ZM9.65517 2.62883C9.65517 1.63927 8.69111 0.941724 7.80814 1.37975C3.18187 3.67563 0 8.46432 0 14C0 19.5358 3.18187 24.3244 7.80814 26.6203C8.69111 27.0583 9.65517 26.3608 9.65517 25.3712V2.62883Z" fill="#3F75FF"/>
</svg>
