<svg width="21" height="20" viewBox="0 0 21 20" fill="none" xmlns="http://www.w3.org/2000/svg">
<g id="bi:person-fill">
<path id="Vector" d="M4.66667 17C4.66667 17 3.5 17 3.5 15.8333C3.5 14.6667 4.66667 11.1667 10.5 11.1667C16.3333 11.1667 17.5 14.6667 17.5 15.8333C17.5 17 16.3333 17 16.3333 17H4.66667ZM10.5 10C11.4283 10 12.3185 9.63125 12.9749 8.97487C13.6313 8.3185 14 7.42826 14 6.5C14 5.57174 13.6313 4.6815 12.9749 4.02513C12.3185 3.36875 11.4283 3 10.5 3C9.57174 3 8.6815 3.36875 8.02513 4.02513C7.36875 4.6815 7 5.57174 7 6.5C7 7.42826 7.36875 8.3185 8.02513 8.97487C8.6815 9.63125 9.57174 10 10.5 10Z" fill="#3F75FF"/>
</g>
</svg>
