<svg width="84" height="84" viewBox="0 0 84 84" fill="none" xmlns="http://www.w3.org/2000/svg">
<g id="Frame 18914">
<g id="Rectangle 940">
<rect x="12" y="12" width="60" height="60" rx="18" fill="#3F75FF"/>
<rect x="6" y="6" width="72" height="72" rx="24" stroke="#3F75FF" stroke-opacity="0.05" stroke-width="12"/>
</g>
<g id="Rectangle 941">
<rect x="12" y="12" width="60" height="60" rx="18" fill="#3F75FF"/>
<rect x="9" y="9" width="66" height="66" rx="21" stroke="#3F75FF" stroke-opacity="0.1" stroke-width="6"/>
</g>
<g id="QA question and answer">
<path id="Vector" d="M34.8421 41.9558C33.0189 42.1484 31.1849 41.7077 29.6484 40.7079L26 42L27.2916 38.3532C26.6132 37.3095 26.1879 36.122 26.0495 34.885C25.9112 33.6481 26.0636 32.396 26.4946 31.2284C26.9257 30.0607 27.6234 29.0097 28.5324 28.1591C29.4414 27.3085 30.5364 26.6817 31.7304 26.3286C32.9244 25.9755 34.1844 25.9058 35.41 26.1252C36.6357 26.3446 37.7932 26.8469 38.7904 27.5922C39.7877 28.3374 40.5971 29.3051 41.1543 30.4182C41.7115 31.5312 42.0011 32.7589 42 34.0035C42 34.2613 41.9874 34.517 41.9642 34.7684" stroke="white" stroke-width="2" stroke-linecap="round" stroke-linejoin="round"/>
<path id="Vector_2" d="M57.3059 53.2188C58.7192 51.0427 59.2766 48.4204 58.8707 45.8575C58.4648 43.2947 57.1244 40.973 55.1079 39.34C53.0914 37.7071 50.5417 36.8786 47.9505 37.0144C45.3593 37.1502 42.9101 38.2406 41.0754 40.0754C39.2406 41.9101 38.1502 44.3593 38.0144 46.9505C37.8786 49.5417 38.7071 52.0914 40.34 54.1079C41.973 56.1244 44.2947 57.4648 46.8575 57.8707C49.4204 58.2766 52.0427 57.7192 54.2188 56.3059L58.9998 57.9998L57.3059 53.2188Z" stroke="white" stroke-width="2" stroke-linecap="round" stroke-linejoin="round"/>
</g>
<circle id="Ellipse 1589" cx="43.5" cy="47.5" r="1.5" fill="white"/>
<circle id="Ellipse 1590" cx="48.5" cy="47.5" r="1.5" fill="white"/>
<circle id="Ellipse 1591" cx="53.5" cy="47.5" r="1.5" fill="white"/>
</g>
</svg>
