<svg width="120" height="140" viewBox="0 0 120 140" fill="none" xmlns="http://www.w3.org/2000/svg">
<g id="Frame" clip-path="url(#clip0_660_1032)">
<g id="Group">
<g id="Layer 1">
<path id="Vector" d="M60.7679 129.694C93.4806 129.694 119.999 103.198 119.999 70.5147C119.999 37.8312 93.4806 11.3359 60.7679 11.3359C28.0552 11.3359 1.53638 37.8312 1.53638 70.5147C1.53638 103.198 28.0552 129.694 60.7679 129.694Z" fill="#152E6D"/>
<path id="Vector_2" d="M106.45 124.205H106.432L101.929 124.104C101.716 124.101 101.512 124.014 101.362 123.862C101.213 123.709 101.131 123.504 101.133 123.29C101.135 123.077 101.222 122.873 101.375 122.724C101.528 122.575 101.733 122.492 101.947 122.495H101.965L106.468 122.596C106.679 122.603 106.878 122.692 107.023 122.844C107.169 122.996 107.249 123.199 107.247 123.409C107.245 123.619 107.16 123.82 107.011 123.969C106.863 124.118 106.662 124.203 106.451 124.205H106.45ZM97.457 124.004H97.4386L92.9491 123.903C92.7388 123.896 92.5396 123.807 92.3941 123.655C92.2487 123.503 92.1686 123.3 92.1709 123.09C92.1733 122.879 92.2578 122.678 92.4066 122.53C92.5554 122.381 92.7565 122.296 92.967 122.294H92.9853L97.4748 122.394C97.6852 122.401 97.8844 122.491 98.0298 122.643C98.1752 122.795 98.2553 122.997 98.253 123.208C98.2507 123.418 98.1661 123.619 98.0173 123.768C97.8686 123.916 97.6674 124.001 97.457 124.004ZM88.478 123.802H88.4596L83.9701 123.701C83.7566 123.696 83.5537 123.607 83.4061 123.452C83.2585 123.298 83.1783 123.092 83.1831 122.878C83.1879 122.665 83.2773 122.462 83.4317 122.315C83.5861 122.167 83.7928 122.087 84.0063 122.092L88.4958 122.192C88.7062 122.2 88.9054 122.289 89.0508 122.441C89.1962 122.593 89.2764 122.796 89.274 123.006C89.2717 123.216 89.1871 123.417 89.0383 123.566C88.8896 123.715 88.6884 123.799 88.478 123.802ZM79.499 123.6H79.4791L74.9896 123.499C74.7792 123.492 74.58 123.403 74.4346 123.251C74.2892 123.099 74.209 122.896 74.2114 122.686C74.2137 122.476 74.2983 122.275 74.4471 122.126C74.5958 121.977 74.7969 121.893 75.0074 121.89H75.0258L79.5153 121.991C79.7288 121.993 79.9327 122.08 80.0821 122.232C80.2314 122.385 80.3141 122.59 80.3118 122.804C80.3095 123.017 80.2224 123.221 80.0698 123.37C79.9172 123.519 79.7115 123.602 79.498 123.6L79.499 123.6ZM70.5195 123.399H70.5011L66.0116 123.298C65.9059 123.297 65.8014 123.275 65.7042 123.234C65.6069 123.192 65.5188 123.132 65.4449 123.056C65.371 122.981 65.3126 122.891 65.2733 122.793C65.2339 122.695 65.2142 122.591 65.2154 122.485C65.2166 122.379 65.2385 122.275 65.2801 122.178C65.3216 122.081 65.3819 121.993 65.4575 121.919C65.5331 121.845 65.6225 121.787 65.7207 121.747C65.8188 121.708 65.9237 121.688 66.0295 121.689H66.0478L70.5373 121.79C70.7477 121.797 70.9469 121.886 71.0923 122.038C71.2377 122.19 71.3178 122.393 71.3155 122.603C71.3132 122.814 71.2286 123.015 71.0798 123.163C70.9311 123.312 70.7299 123.397 70.5195 123.399V123.399ZM61.54 123.197H61.5216L57.0316 123.096C56.9258 123.095 56.8214 123.073 56.7241 123.031C56.6269 122.99 56.5388 122.93 56.4649 122.854C56.3909 122.779 56.3326 122.689 56.2932 122.591C56.2538 122.493 56.2342 122.388 56.2353 122.283C56.2365 122.177 56.2585 122.073 56.3 121.975C56.3416 121.878 56.4019 121.79 56.4775 121.716C56.5531 121.643 56.6425 121.584 56.7406 121.545C56.8388 121.506 56.9437 121.486 57.0494 121.487H57.0678L61.5578 121.588C61.7713 121.591 61.9752 121.678 62.1245 121.83C62.2738 121.983 62.3564 122.188 62.354 122.402C62.3517 122.615 62.2646 122.819 62.1119 122.968C61.9592 123.117 61.7535 123.199 61.54 123.197ZM52.5604 122.996H52.5421L48.0526 122.895C47.8422 122.888 47.643 122.799 47.4976 122.647C47.3522 122.495 47.2721 122.292 47.2744 122.082C47.2767 121.872 47.3613 121.671 47.5101 121.522C47.6588 121.373 47.86 121.288 48.0704 121.286H48.0888L52.5783 121.386C52.7886 121.394 52.9878 121.483 53.1333 121.635C53.2787 121.787 53.3588 121.99 53.3565 122.2C53.3541 122.41 53.2696 122.611 53.1208 122.76C52.972 122.909 52.7709 122.993 52.5604 122.996ZM110.636 122.829C110.468 122.829 110.304 122.776 110.167 122.679C110.03 122.581 109.927 122.442 109.873 122.283C109.819 122.124 109.816 121.952 109.865 121.791C109.914 121.63 110.012 121.488 110.145 121.386C111.2 120.578 111.95 119.438 112.276 118.151C112.299 118.047 112.344 117.948 112.406 117.861C112.468 117.773 112.548 117.7 112.639 117.643C112.73 117.587 112.832 117.55 112.938 117.533C113.044 117.517 113.152 117.522 113.256 117.548C113.361 117.573 113.458 117.62 113.544 117.684C113.63 117.748 113.703 117.829 113.757 117.922C113.811 118.014 113.846 118.117 113.86 118.223C113.874 118.329 113.867 118.437 113.839 118.541C113.424 120.18 112.469 121.632 111.127 122.662C110.986 122.77 110.814 122.829 110.636 122.829ZM43.5846 122.794H43.5662L42.3598 122.767C41.1259 122.739 39.9183 122.404 38.8454 121.795C38.7508 121.744 38.6674 121.675 38.6 121.591C38.5326 121.507 38.4826 121.411 38.453 121.308C38.4233 121.205 38.4147 121.097 38.4275 120.99C38.4403 120.883 38.4743 120.781 38.5275 120.687C38.5807 120.594 38.652 120.512 38.7373 120.447C38.8226 120.382 38.9201 120.334 39.024 120.307C39.128 120.28 39.2363 120.274 39.3427 120.289C39.449 120.305 39.5512 120.341 39.6432 120.396C40.483 120.874 41.4284 121.136 42.3944 121.158L43.6009 121.185C43.8112 121.192 44.0104 121.281 44.1558 121.434C44.3013 121.586 44.3814 121.788 44.3791 121.999C44.3767 122.209 44.2921 122.41 44.1434 122.559C43.9946 122.707 43.7935 122.792 43.583 122.795L43.5846 122.794ZM36.346 118.587C36.1855 118.587 36.0286 118.539 35.8955 118.449C35.7625 118.359 35.6592 118.232 35.5991 118.083C35.2415 117.201 35.0582 116.258 35.0593 115.306C35.0593 115.249 35.0593 115.193 35.0593 115.137L35.0997 113.34C35.1047 113.13 35.1916 112.93 35.3421 112.783C35.4925 112.636 35.6945 112.554 35.9049 112.554H35.9232C36.1367 112.559 36.3395 112.648 36.4871 112.802C36.6346 112.956 36.7148 113.163 36.71 113.376L36.6697 115.173C36.6697 115.217 36.6697 115.262 36.6697 115.306C36.6677 116.051 36.8102 116.789 37.0893 117.48C37.129 117.578 37.1491 117.683 37.1482 117.789C37.1474 117.894 37.1257 117.999 37.0844 118.096C37.043 118.194 36.9829 118.282 36.9075 118.356C36.832 118.43 36.7426 118.489 36.6445 118.528C36.5484 118.567 36.4456 118.587 36.3418 118.587H36.346ZM113.322 114.681H113.303C113.09 114.676 112.887 114.587 112.739 114.432C112.592 114.278 112.512 114.072 112.516 113.858L112.618 109.373C112.622 109.163 112.709 108.963 112.86 108.816C113.01 108.669 113.212 108.587 113.422 108.587H113.441C113.654 108.591 113.857 108.681 114.004 108.835C114.152 108.989 114.232 109.196 114.227 109.409L114.127 113.894C114.122 114.105 114.034 114.306 113.883 114.453C113.732 114.6 113.529 114.682 113.317 114.681H113.322ZM36.0077 109.677H35.9893C35.8836 109.675 35.7793 109.652 35.6826 109.609C35.5858 109.566 35.4984 109.505 35.4253 109.429C35.3522 109.352 35.295 109.262 35.2567 109.164C35.2185 109.065 35.2001 108.96 35.2025 108.854L35.3032 104.369C35.308 104.159 35.3949 103.959 35.5453 103.812C35.6956 103.665 35.8976 103.583 36.1079 103.583H36.1262C36.3397 103.588 36.5426 103.677 36.6901 103.831C36.8376 103.986 36.9178 104.192 36.913 104.406L36.8123 108.891C36.8074 109.102 36.7199 109.302 36.5687 109.449C36.4174 109.596 36.2145 109.678 36.0035 109.677H36.0077ZM113.523 105.71H113.505C113.292 105.705 113.089 105.616 112.941 105.462C112.794 105.307 112.714 105.101 112.718 104.888L112.819 100.402C112.824 100.192 112.911 99.9923 113.061 99.8454C113.212 99.6985 113.414 99.6162 113.624 99.6161H113.643C113.748 99.6185 113.853 99.6417 113.949 99.6844C114.046 99.727 114.134 99.7883 114.207 99.8647C114.28 99.9411 114.337 100.031 114.375 100.13C114.413 100.228 114.432 100.333 114.429 100.439L114.329 104.924C114.324 105.135 114.236 105.335 114.085 105.482C113.935 105.629 113.732 105.711 113.521 105.71H113.523ZM36.2049 100.706H36.1866C35.9731 100.701 35.7703 100.612 35.6227 100.458C35.4752 100.304 35.395 100.097 35.3998 99.8839L35.501 95.3984C35.5058 95.1884 35.5927 94.9885 35.743 94.8416C35.8934 94.6947 36.0953 94.6124 36.3056 94.6124H36.324C36.5375 94.6173 36.7403 94.7067 36.8878 94.861C37.0354 95.0153 37.1156 95.2218 37.1108 95.4351L37.0095 99.9206C37.0046 100.131 36.9177 100.33 36.7673 100.477C36.617 100.624 36.4151 100.706 36.2049 100.706ZM113.721 96.7369H113.702C113.597 96.7345 113.492 96.7114 113.396 96.6687C113.299 96.6261 113.211 96.5648 113.138 96.4884C113.065 96.412 113.008 96.3219 112.97 96.2234C112.932 96.1249 112.913 96.0198 112.916 95.9141L113.016 91.4286C113.021 91.2186 113.108 91.0187 113.258 90.8718C113.409 90.7249 113.611 90.6426 113.821 90.6425H113.839C114.053 90.6473 114.256 90.7367 114.403 90.8909C114.551 91.0451 114.631 91.2515 114.626 91.4648L114.525 95.9503C114.521 96.1604 114.434 96.3603 114.283 96.5073C114.133 96.6543 113.931 96.7367 113.721 96.7369ZM36.4074 91.7331H36.3885C36.175 91.7282 35.9722 91.6387 35.8246 91.4844C35.6771 91.3302 35.5969 91.1237 35.6017 90.9103L35.7024 86.4248C35.7073 86.2148 35.7942 86.015 35.9446 85.8682C36.0949 85.7213 36.2968 85.639 36.507 85.6387H36.5259C36.7394 85.6435 36.9422 85.7329 37.0898 85.8871C37.2373 86.0413 37.3175 86.2477 37.3127 86.461L37.212 90.9465C37.2076 91.1569 37.121 91.3572 36.9706 91.5045C36.8202 91.6518 36.618 91.7345 36.4074 91.7347V91.7331ZM113.923 87.7659H113.904C113.691 87.761 113.488 87.6715 113.34 87.5173C113.193 87.363 113.113 87.1565 113.118 86.9431L113.219 82.4576C113.224 82.2476 113.31 82.0477 113.461 81.9008C113.611 81.7539 113.813 81.6716 114.023 81.6715H114.042C114.255 81.6765 114.458 81.7659 114.606 81.9202C114.753 82.0745 114.833 82.281 114.829 82.4943L114.727 86.9798C114.723 87.1902 114.636 87.3904 114.486 87.5377C114.335 87.6849 114.133 87.7674 113.923 87.7675V87.7659ZM36.6088 82.7637H36.5904C36.377 82.7586 36.1742 82.6691 36.0267 82.5149C35.8792 82.3606 35.799 82.1542 35.8036 81.9409L35.9049 77.4554C35.9097 77.2454 35.9965 77.0455 36.1469 76.8986C36.2973 76.7517 36.4992 76.6694 36.7095 76.6693H36.7279C36.9414 76.6743 37.1442 76.7637 37.2917 76.918C37.4393 77.0723 37.5195 77.2788 37.5147 77.4921L37.4134 81.9776C37.4086 82.1877 37.3218 82.3875 37.1714 82.5344C37.021 82.6813 36.8191 82.7636 36.6088 82.7637ZM114.125 78.7965H114.106C113.892 78.7916 113.69 78.7022 113.542 78.548C113.395 78.3938 113.314 78.1875 113.319 77.9742L113.42 73.4882C113.425 73.2782 113.511 73.0784 113.662 72.9315C113.812 72.7847 114.014 72.7023 114.224 72.7021H114.243C114.457 72.7071 114.659 72.7964 114.807 72.9506C114.954 73.1048 115.035 73.3111 115.03 73.5244L114.929 78.0104C114.924 78.2204 114.837 78.4202 114.687 78.5671C114.537 78.714 114.335 78.7963 114.125 78.7965ZM36.8108 73.7927H36.7924C36.579 73.7878 36.3762 73.6984 36.2287 73.5442C36.0812 73.39 36.0009 73.1837 36.0056 72.9704L36.1063 68.4844C36.1112 68.2743 36.1982 68.0745 36.3487 67.9276C36.4991 67.7807 36.7011 67.6984 36.9115 67.6983H36.9298C37.1433 67.7031 37.3461 67.7925 37.4937 67.9467C37.6412 68.1009 37.7214 68.3073 37.7166 68.5206L37.6159 73.0066C37.6111 73.2168 37.5242 73.4167 37.3737 73.5636C37.2232 73.7105 37.0212 73.7928 36.8108 73.7927ZM114.326 69.825H114.308C114.095 69.82 113.892 69.7306 113.744 69.5763C113.597 69.422 113.517 69.2155 113.521 69.0022L113.623 64.5167C113.627 64.3034 113.717 64.1007 113.871 63.9532C114.026 63.8057 114.232 63.7256 114.446 63.7303C114.659 63.7351 114.862 63.8245 115.01 63.9787C115.158 64.133 115.238 64.3395 115.233 64.5529L115.132 69.0384C115.127 69.2487 115.04 69.4488 114.889 69.5959C114.739 69.7429 114.537 69.8252 114.326 69.825ZM37.0122 64.8212H36.9917C36.886 64.8188 36.7817 64.7956 36.685 64.753C36.5882 64.7103 36.5008 64.6491 36.4277 64.5727C36.3546 64.4963 36.2973 64.4062 36.2591 64.3077C36.2209 64.2091 36.2025 64.1041 36.2049 63.9984L36.3056 59.5129C36.308 59.4073 36.3312 59.3031 36.3738 59.2064C36.4165 59.1097 36.4778 59.0224 36.5542 58.9494C36.6307 58.8764 36.7208 58.8191 36.8194 58.7809C36.918 58.7426 37.0231 58.7242 37.1289 58.7265C37.2346 58.7289 37.3388 58.7521 37.4356 58.7947C37.5324 58.8373 37.6198 58.8986 37.6929 58.9749C37.766 59.0513 37.8233 59.1413 37.8616 59.2398C37.8999 59.3384 37.9183 59.4434 37.9159 59.5491L37.8152 64.0346C37.8104 64.2444 37.7238 64.4441 37.5738 64.591C37.4238 64.738 37.2223 64.8206 37.0122 64.8212ZM114.528 60.854H114.51C114.296 60.8492 114.093 60.7599 113.946 60.6057C113.798 60.4515 113.718 60.245 113.723 60.0317L113.824 55.5462C113.828 55.3361 113.915 55.1363 114.066 54.9894C114.216 54.8425 114.418 54.7602 114.629 54.7601H114.647C114.753 54.7625 114.857 54.7857 114.954 54.8283C115.051 54.871 115.138 54.9323 115.211 55.0087C115.284 55.0851 115.341 55.1751 115.38 55.2737C115.418 55.3722 115.436 55.4773 115.434 55.5829L115.333 60.0684C115.328 60.2785 115.241 60.4783 115.091 60.6251C114.94 60.7719 114.738 60.8541 114.528 60.854ZM37.2141 55.8502H37.1958C36.9823 55.8454 36.7795 55.7561 36.6319 55.6019C36.4844 55.4477 36.4042 55.2412 36.409 55.0279L36.5097 50.5424C36.517 50.3308 36.6075 50.1305 36.7616 49.9851C36.9158 49.8396 37.121 49.7607 37.333 49.7655C37.5449 49.7703 37.7464 49.8583 37.8939 50.0105C38.0413 50.1627 38.1227 50.3668 38.1205 50.5786L38.0193 55.0641C38.0145 55.2743 37.9275 55.4742 37.7771 55.6211C37.6266 55.768 37.4245 55.8503 37.2141 55.8502ZM114.728 51.8825H114.709C114.604 51.8801 114.499 51.8569 114.403 51.8143C114.306 51.7716 114.219 51.7104 114.145 51.634C114.072 51.5575 114.015 51.4675 113.977 51.369C113.939 51.2704 113.92 51.1653 113.923 51.0597L114.023 46.5742C114.028 46.3608 114.118 46.1581 114.272 46.0107C114.426 45.8632 114.633 45.783 114.847 45.7878C115.06 45.7926 115.263 45.882 115.411 46.0362C115.558 46.1905 115.638 46.397 115.634 46.6104L115.533 51.0959C115.528 51.3061 115.441 51.506 115.291 51.653C115.14 51.8 114.938 51.8824 114.728 51.8825ZM37.4145 46.8787H37.3956C37.1821 46.8737 36.9793 46.7843 36.8317 46.63C36.6842 46.4757 36.604 46.2692 36.6088 46.0559L36.7095 41.5704C36.7144 41.3604 36.8014 41.1606 36.9517 41.0137C37.102 40.8668 37.3039 40.7845 37.5142 40.7843H37.533C37.7465 40.7891 37.9493 40.8784 38.0969 41.0326C38.2444 41.1868 38.3246 41.3933 38.3198 41.6066L38.2191 46.0921C38.2143 46.3019 38.1277 46.5016 37.9777 46.6485C37.8277 46.7955 37.6261 46.8781 37.4161 46.8787H37.4145ZM114.93 42.9115H114.911C114.698 42.9065 114.495 42.8171 114.348 42.6628C114.2 42.5085 114.12 42.302 114.125 42.0887L114.225 37.6032C114.233 37.3915 114.323 37.1913 114.477 37.0458C114.631 36.9004 114.837 36.8215 115.049 36.8263C115.261 36.831 115.462 36.919 115.61 37.0712C115.757 37.2234 115.838 37.4276 115.836 37.6394L115.735 42.1249C115.73 42.3348 115.644 42.5347 115.493 42.6817C115.343 42.8286 115.142 42.9111 114.931 42.9115H114.93ZM37.6159 37.9077H37.5976C37.3841 37.9029 37.1813 37.8135 37.0337 37.6593C36.8862 37.5051 36.806 37.2987 36.8108 37.0854L36.912 32.5999C36.9144 32.4943 36.9375 32.3901 36.9802 32.2935C37.0229 32.1968 37.0842 32.1094 37.1606 32.0364C37.2371 31.9634 37.3271 31.9061 37.4257 31.8679C37.5243 31.8296 37.6295 31.8112 37.7352 31.8136C37.841 31.8159 37.9452 31.8391 38.042 31.8817C38.1388 31.9243 38.2262 31.9856 38.2993 32.062C38.3724 32.1383 38.4297 32.2284 38.4679 32.3269C38.5062 32.4254 38.5247 32.5304 38.5223 32.6361L38.4211 37.1216C38.4163 37.3315 38.3296 37.5312 38.1794 37.678C38.0293 37.8249 37.8276 37.9073 37.6175 37.9077H37.6159ZM115.131 33.9405H115.113C114.899 33.9355 114.697 33.8462 114.549 33.692C114.402 33.5378 114.321 33.3315 114.326 33.1182L114.366 31.328C114.366 31.2845 114.366 31.24 114.366 31.1954C114.367 30.4481 114.223 29.7077 113.942 29.0153C113.899 28.9168 113.876 28.8108 113.875 28.7034C113.874 28.596 113.894 28.4895 113.935 28.3901C113.975 28.2907 114.035 28.2004 114.112 28.1246C114.188 28.0487 114.278 27.9889 114.378 27.9485C114.477 27.9082 114.584 27.8881 114.691 27.8896C114.799 27.8911 114.905 27.914 115.003 27.9571C115.102 28.0001 115.191 28.0624 115.265 28.1403C115.339 28.2182 115.396 28.3101 115.434 28.4105C115.794 29.295 115.978 30.2408 115.977 31.1954C115.977 31.2515 115.977 31.3071 115.977 31.3631L115.937 33.1544C115.932 33.3643 115.845 33.564 115.695 33.7109C115.545 33.8577 115.343 33.9401 115.133 33.9405H115.131ZM37.981 28.9529C37.9149 28.9529 37.849 28.9448 37.7848 28.9288C37.5776 28.8769 37.3996 28.7448 37.2898 28.5617C37.18 28.3787 37.1475 28.1595 37.1994 27.9525C37.6152 26.3134 38.5721 24.8623 39.9155 23.8338C39.9994 23.7696 40.0952 23.7224 40.1974 23.6951C40.2995 23.6678 40.4061 23.6609 40.5109 23.6748C40.6158 23.6886 40.7168 23.723 40.8084 23.7758C40.9 23.8287 40.9802 23.8991 41.0445 23.9829C41.1089 24.0668 41.156 24.1625 41.1834 24.2646C41.2107 24.3667 41.2176 24.4731 41.2038 24.5778C41.1899 24.6826 41.1555 24.7836 41.1026 24.8751C41.0497 24.9666 40.9792 25.0467 40.8953 25.111C39.8405 25.9181 39.0888 27.0569 38.7615 28.3434C38.7182 28.5172 38.618 28.6715 38.4769 28.7819C38.3358 28.8924 38.1618 28.9525 37.9826 28.9529H37.981ZM111.783 26.2063C111.644 26.2067 111.507 26.1705 111.386 26.1015C110.547 25.6263 109.604 25.3658 108.64 25.3432L107.427 25.3164C107.214 25.3116 107.011 25.2223 106.863 25.068C106.716 24.9138 106.635 24.7073 106.64 24.4939C106.645 24.2806 106.735 24.0778 106.889 23.9304C107.043 23.7829 107.25 23.7028 107.464 23.7075L108.676 23.7343C109.907 23.763 111.112 24.0957 112.182 24.7028C112.337 24.7905 112.458 24.9269 112.527 25.0908C112.596 25.2547 112.609 25.4368 112.563 25.6086C112.518 25.7804 112.416 25.9323 112.275 26.0405C112.134 26.1487 111.961 26.2072 111.783 26.2068V26.2063ZM102.956 25.2153H102.938L98.4478 25.1147C98.2343 25.1123 98.0304 25.0253 97.8811 24.8728C97.7318 24.7202 97.6492 24.5147 97.6516 24.3013C97.6539 24.088 97.741 23.8843 97.8937 23.7351C98.0464 23.5859 98.2521 23.5034 98.4657 23.5058H98.484L102.974 23.6064C103.184 23.6136 103.384 23.7027 103.529 23.8547C103.674 24.0067 103.755 24.2095 103.752 24.4198C103.75 24.6301 103.665 24.8311 103.517 24.9799C103.368 25.1286 103.167 25.2133 102.956 25.2158V25.2153ZM93.9767 25.0135H93.9583L89.4688 24.9124C89.3631 24.91 89.2589 24.8868 89.1621 24.8442C89.0653 24.8016 88.9779 24.7404 88.9048 24.664C88.8317 24.5876 88.7744 24.4976 88.7361 24.3991C88.6979 24.3006 88.6794 24.1955 88.6818 24.0899C88.6841 23.9842 88.7073 23.8801 88.75 23.7834C88.7926 23.6867 88.8539 23.5993 88.9304 23.5263C89.0068 23.4533 89.0969 23.396 89.1955 23.3578C89.2941 23.3196 89.3993 23.3011 89.505 23.3035L93.9945 23.4046C94.1003 23.4058 94.2047 23.4278 94.302 23.4693C94.3992 23.5108 94.4873 23.571 94.5612 23.6466C94.6352 23.7221 94.6935 23.8114 94.7329 23.9095C94.7723 24.0075 94.7919 24.1123 94.7908 24.218C94.7896 24.3236 94.7676 24.428 94.7261 24.5252C94.6845 24.6223 94.6242 24.7103 94.5486 24.7842C94.473 24.8581 94.3836 24.9164 94.2855 24.9557C94.1874 24.995 94.0824 25.0147 93.9767 25.0135ZM84.9977 24.8118H84.9793L80.4898 24.7111C80.2795 24.704 80.0803 24.6149 79.9349 24.463C79.7894 24.311 79.7092 24.1082 79.7115 23.898C79.7138 23.6877 79.7983 23.4867 79.947 23.3379C80.0957 23.1891 80.2967 23.1043 80.5072 23.1017H80.5255L85.0155 23.2023C85.1213 23.2035 85.2257 23.2255 85.323 23.267C85.4202 23.3085 85.5083 23.3687 85.5822 23.4443C85.6562 23.5198 85.7145 23.6091 85.7539 23.7072C85.7933 23.8052 85.8129 23.9101 85.8118 24.0157C85.8106 24.1213 85.7886 24.2257 85.7471 24.3229C85.7055 24.42 85.6452 24.508 85.5696 24.5819C85.494 24.6558 85.4046 24.7141 85.3065 24.7534C85.2084 24.7928 85.1034 24.8124 84.9977 24.8112V24.8118ZM76.0187 24.6105H75.9998L71.5103 24.5099C71.4046 24.5087 71.3001 24.4868 71.2029 24.4453C71.1056 24.4037 71.0175 24.3435 70.9436 24.268C70.8697 24.1924 70.8113 24.1031 70.772 24.0051C70.7326 23.907 70.7129 23.8022 70.7141 23.6965C70.7152 23.5909 70.7372 23.4865 70.7788 23.3894C70.8203 23.2922 70.8806 23.2042 70.9562 23.1303C71.0318 23.0565 71.1212 22.9982 71.2194 22.9588C71.3175 22.9195 71.4224 22.8998 71.5282 22.901H71.5465L76.036 23.0016C76.2463 23.0088 76.4455 23.0978 76.591 23.2498C76.7364 23.4017 76.8166 23.6045 76.8144 23.8148C76.8121 24.025 76.7276 24.2261 76.5789 24.3749C76.4302 24.5237 76.2291 24.6084 76.0187 24.611V24.6105ZM67.0392 24.4087H67.0208L62.5313 24.3081C62.4256 24.3058 62.3214 24.2826 62.2246 24.24C62.1278 24.1974 62.0404 24.1361 61.9673 24.0597C61.8942 23.9833 61.8369 23.8933 61.7986 23.7948C61.7604 23.6963 61.7419 23.5912 61.7443 23.4856C61.7466 23.38 61.7698 23.2758 61.8125 23.1791C61.8551 23.0824 61.9164 22.9951 61.9929 22.9221C62.0693 22.8491 62.1594 22.7918 62.258 22.7536C62.3566 22.7153 62.4618 22.6969 62.5675 22.6992L67.057 22.7999C67.1628 22.801 67.2672 22.823 67.3645 22.8645C67.4617 22.906 67.5498 22.9663 67.6237 23.0418C67.6977 23.1173 67.756 23.2066 67.7954 23.3047C67.8348 23.4027 67.8544 23.5076 67.8533 23.6132C67.8521 23.7189 67.8301 23.8232 67.7886 23.9204C67.747 24.0175 67.6867 24.1056 67.6111 24.1794C67.5355 24.2533 67.4461 24.3116 67.348 24.3509C67.2498 24.3903 67.1449 24.4099 67.0392 24.4087ZM58.0612 24.2059H58.0429L53.5529 24.1053C53.3393 24.1005 53.1364 24.0112 52.9888 23.8569C52.8412 23.7027 52.761 23.4961 52.7658 23.2828C52.7706 23.0694 52.86 22.8667 53.0144 22.7193C53.1688 22.5718 53.3755 22.4916 53.5891 22.4964L58.0791 22.597C58.2894 22.6042 58.4886 22.6933 58.6341 22.8453C58.7795 22.9973 58.8596 23.2002 58.8573 23.4105C58.8549 23.6207 58.7704 23.8217 58.6216 23.9705C58.4728 24.1193 58.2717 24.204 58.0612 24.2065V24.2059ZM49.0817 24.0042H49.0634L44.5744 23.903C44.4687 23.9007 44.3644 23.8776 44.2676 23.8351C44.1708 23.7925 44.0833 23.7313 44.0102 23.655C43.9371 23.5787 43.8797 23.4887 43.8414 23.3902C43.803 23.2917 43.7845 23.1867 43.7868 23.081C43.7891 22.9754 43.8122 22.8712 43.8548 22.7745C43.8974 22.6778 43.9587 22.5904 44.0351 22.5173C44.1115 22.4443 44.2015 22.387 44.3001 22.3487C44.3987 22.3104 44.5038 22.2918 44.6095 22.2941H44.6169L49.0996 22.3948C49.2053 22.3959 49.3098 22.4179 49.407 22.4594C49.5042 22.5009 49.5923 22.5611 49.6663 22.6367C49.7402 22.7122 49.7985 22.8015 49.8379 22.8996C49.8773 22.9976 49.897 23.1025 49.8958 23.2081C49.8946 23.3137 49.8726 23.4181 49.8311 23.5153C49.7896 23.6124 49.7293 23.7005 49.6537 23.7743C49.5781 23.8482 49.4887 23.9065 49.3905 23.9458C49.2924 23.9852 49.1875 24.0048 49.0817 24.0036V24.0042Z" fill="#425F9C"/>
<g id="Vector_3" style="mix-blend-mode:multiply" opacity="0.25">
<path d="M104.643 124.131L92.5636 48.5556C92.5419 48.4276 92.4903 48.3064 92.4131 48.2019C92.4063 48.1919 92.3989 48.183 92.3916 48.1731C92.3453 48.1124 92.2907 48.0584 92.2295 48.0127L80.8109 39.7476L74.056 34.8576C74.0527 34.8556 74.0494 34.8539 74.046 34.8523C73.9894 34.8131 73.928 34.7813 73.8634 34.7575C73.844 34.7501 73.8257 34.7438 73.8063 34.7381C73.7403 34.7169 73.6719 34.7042 73.6027 34.7003H73.5965C73.5424 34.6982 73.4883 34.7014 73.4349 34.7098L17.8368 43.5796C16.1125 43.8566 14.5686 44.8057 13.5437 46.2186C12.5189 47.6315 12.0968 49.3928 12.3701 51.1162L26.0442 136.671C26.1259 137.184 26.3079 137.676 26.5798 138.118C26.8518 138.56 27.2083 138.945 27.6291 139.249C28.0498 139.554 28.5265 139.773 29.0319 139.893C29.5374 140.013 30.0616 140.033 30.5746 139.951L101.36 128.658C102.395 128.491 103.322 127.921 103.938 127.072C104.553 126.224 104.807 125.166 104.643 124.131Z" fill="#3A70C1"/>
</g>
<path id="Vector_4" d="M94.1136 45.9121L106.193 121.488C106.321 122.305 106.12 123.139 105.634 123.808C105.149 124.478 104.418 124.928 103.601 125.061L32.8149 136.357C31.9973 136.485 31.1623 136.284 30.4923 135.799C29.8222 135.314 29.3715 134.583 29.2386 133.767L15.565 48.2086C15.0656 45.0862 17.2147 42.1231 20.3383 41.6247L75.9358 32.7549L81.787 36.9899L88.0348 41.5105L94.1136 45.9121Z" fill="#1B2A49"/>
<path id="Vector_5" d="M32.3233 137.226C31.3828 137.224 30.4736 136.888 29.7582 136.278C29.0428 135.668 28.5678 134.824 28.4182 133.896L14.742 48.3417C14.4686 46.6185 14.8904 44.8574 15.9148 43.4445C16.9392 42.0316 18.4826 41.0822 20.2066 40.8046L75.8073 31.9347C76.0254 31.9 76.2484 31.9531 76.4273 32.0825L94.6019 45.2366C94.6906 45.3007 94.7657 45.3817 94.8231 45.4748C94.8804 45.568 94.9188 45.6715 94.9361 45.7795L107.015 121.355C107.179 122.39 106.926 123.448 106.31 124.296C105.695 125.145 104.768 125.715 103.732 125.881L32.9465 137.176C32.7404 137.209 32.5321 137.226 32.3233 137.226ZM75.7307 33.6332L20.4715 42.4486C19.1845 42.6581 18.0328 43.3678 17.2677 44.4227C16.5025 45.4776 16.1861 46.792 16.3874 48.0791L30.061 133.632C30.1586 134.23 30.4892 134.765 30.9806 135.121C31.472 135.477 32.0842 135.624 32.6837 135.53L103.468 124.237C104.067 124.139 104.603 123.808 104.959 123.318C105.315 122.827 105.462 122.215 105.369 121.616L93.3441 46.3812L75.7307 33.6332Z" fill="#3F75FF"/>
<g id="Vector_6" style="mix-blend-mode:multiply" opacity="0.25">
<path d="M78.7061 47.6115C79.0208 47.9259 79.8543 50.3157 93.8079 49.3729L93.382 46.708L78.7061 47.6115Z" fill="#3A70C1"/>
</g>
<path id="Vector_7" d="M77.9486 45.3323C78.0815 46.1481 78.5322 46.8783 79.2021 47.3633C79.8721 47.8483 80.707 48.0486 81.5243 47.9206L94.1132 45.9124L75.9407 32.7583L77.9486 45.3323Z" fill="#1B2A49"/>
<path id="Vector_8" d="M81.0302 48.7927C80.0898 48.7909 79.1807 48.455 78.4655 47.8451C77.7502 47.2351 77.2755 46.3908 77.1261 45.4632L75.1155 32.8856C75.0897 32.7231 75.1127 32.5566 75.1815 32.4071C75.2503 32.2577 75.3619 32.1319 75.5022 32.0457C75.6425 31.9595 75.8052 31.9168 75.9697 31.9229C76.1343 31.9291 76.2934 31.9838 76.4269 32.0801L94.5994 45.2342C94.7327 45.3309 94.8344 45.4649 94.8916 45.6193C94.9487 45.7737 94.9588 45.9416 94.9205 46.1017C94.8822 46.2618 94.7973 46.407 94.6765 46.5189C94.5557 46.6308 94.4043 46.7044 94.2416 46.7304L81.6528 48.7387C81.447 48.773 81.2388 48.7911 81.0302 48.7927ZM77.0789 34.6098L78.7715 45.2007C78.8687 45.7992 79.1992 46.3349 79.6907 46.6907C80.1822 47.0464 80.7947 47.1932 81.3942 47.0989L91.9945 45.4072L77.0789 34.6098Z" fill="#3F75FF"/>
<path id="Vector_9" d="M51.5087 55.1645L29.7531 58.6375C29.026 58.7513 28.2834 58.5729 27.6875 58.1415C27.0916 57.71 26.6909 57.0605 26.5728 56.3347C26.4591 55.6083 26.6376 54.8665 27.0694 54.2712C27.5012 53.6758 28.1513 53.2754 28.8776 53.1573L50.6338 49.6864C51.3607 49.5726 52.1032 49.7508 52.6991 50.1822C53.295 50.6136 53.6958 51.263 53.814 51.9886C53.9274 52.7149 53.7487 53.4564 53.3168 54.0515C52.8848 54.6465 52.2348 55.0466 51.5087 55.1645Z" fill="#3F75FF"/>
<path id="Vector_10" d="M82.3226 62.6115L40.0891 69.3494C39.3621 69.4632 38.6196 69.285 38.0237 68.8536C37.4278 68.4223 37.027 67.7729 36.9088 67.0472C36.7949 66.3209 36.9733 65.579 37.4051 64.9837C37.8368 64.3883 38.4868 63.9879 39.2131 63.8698L81.4466 57.1318C82.1736 57.0178 82.9163 57.1959 83.5122 57.6273C84.1081 58.0587 84.5089 58.7083 84.6268 59.4341C84.7407 60.1604 84.5623 60.9023 84.1306 61.4976C83.6989 62.0929 83.0488 62.4934 82.3226 62.6115Z" fill="#293B61"/>
<path id="Vector_11" d="M84.2493 74.6675L33.6059 82.7471C32.8789 82.8609 32.1363 82.6826 31.5404 82.2511C30.9445 81.8196 30.5438 81.1701 30.4257 80.4443C30.3118 79.718 30.4902 78.9762 30.9219 78.3808C31.3537 77.7855 32.0037 77.385 32.73 77.2669L83.3733 69.1874C84.1003 69.0736 84.8429 69.2518 85.4389 69.6831C86.0348 70.1145 86.4357 70.7639 86.5541 71.4896C86.668 72.2161 86.4895 72.958 86.0577 73.5535C85.6259 74.1489 84.9757 74.5494 84.2493 74.6675Z" fill="#293B61"/>
<path id="Vector_12" d="M86.1763 86.7232L35.5329 94.8027C34.8059 94.9166 34.0633 94.7383 33.4674 94.307C32.8714 93.8756 32.4705 93.2262 32.3522 92.5005C32.2383 91.7741 32.4168 91.0322 32.8486 90.4368C33.2805 89.8415 33.9306 89.4411 34.657 89.3231L85.3014 81.243C86.0284 81.1292 86.771 81.3075 87.3669 81.739C87.9628 82.1705 88.3635 82.82 88.4816 83.5458C88.5955 84.2722 88.417 85.0142 87.985 85.6096C87.553 86.205 86.9028 86.6053 86.1763 86.7232Z" fill="#293B61"/>
<path id="Vector_13" d="M88.103 98.7808L37.4597 106.86C36.7326 106.974 35.99 106.796 35.3942 106.364C34.7983 105.933 34.3975 105.283 34.2794 104.558C34.1655 103.831 34.3439 103.089 34.7757 102.494C35.2074 101.899 35.8574 101.498 36.5837 101.38L87.2271 93.3006C87.954 93.1868 88.6965 93.3651 89.2924 93.7964C89.8883 94.2278 90.2891 94.8772 90.4073 95.6029C90.5214 96.3293 90.343 97.0713 89.9113 97.6667C89.4795 98.2622 88.8294 98.6627 88.103 98.7808Z" fill="#293B61"/>
<path id="Vector_14" d="M90.0295 110.835L39.3862 118.914C38.6592 119.028 37.9167 118.85 37.3208 118.418C36.725 117.987 36.3241 117.337 36.2059 116.612C36.092 115.885 36.2705 115.144 36.7024 114.548C37.1342 113.953 37.7844 113.552 38.5107 113.434L89.1541 105.354C89.8811 105.241 90.6237 105.419 91.2196 105.85C91.8155 106.282 92.2163 106.931 92.3343 107.657C92.4482 108.384 92.2698 109.125 91.8379 109.721C91.4061 110.316 90.7559 110.717 90.0295 110.835Z" fill="#293B61"/>
<path id="Vector_15" d="M102.285 9.54852C104.924 9.54852 107.064 7.41101 107.064 4.77426C107.064 2.13751 104.924 0 102.285 0C99.6462 0 97.5068 2.13751 97.5068 4.77426C97.5068 7.41101 99.6462 9.54852 102.285 9.54852Z" fill="#3F75FF"/>
<path id="Vector_16" d="M16.5521 21.9792C16.8624 19.6241 15.2031 17.4636 12.8459 17.1535C10.4888 16.8435 8.32633 18.5013 8.016 20.8564C7.70567 23.2114 9.36496 25.372 11.7221 25.682C14.0793 25.9921 16.2417 24.3342 16.5521 21.9792Z" fill="#2B52A3"/>
<path id="Vector_17" d="M5.76839 84.9624C7.088 83.644 7.088 81.5064 5.7684 80.188C4.44879 78.8695 2.3093 78.8695 0.989694 80.188C-0.329909 81.5064 -0.329911 83.644 0.989692 84.9624C2.30929 86.2808 4.44879 86.2808 5.76839 84.9624Z" fill="#2B52A3"/>
</g>
</g>
</g>
<defs>
<clipPath id="clip0_660_1032">
<rect width="120" height="140" fill="white"/>
</clipPath>
</defs>
</svg>
