<svg width="24" height="24" viewBox="0 0 24 24" fill="none" xmlns="http://www.w3.org/2000/svg">
<g id="basil:like-solid">
<path id="Vector" d="M11.337 3.75C11.1113 3.74999 10.8889 3.80454 10.6889 3.90901C10.4888 4.01348 10.3169 4.16478 10.188 4.35L5.95598 10.427C5.16128 11.5682 4.80708 12.9587 4.95898 14.341L5.28498 17.302C5.35231 17.9168 5.62595 18.4906 6.06125 18.9299C6.49655 19.3692 7.06785 19.6481 7.68198 19.721L9.79898 19.973C11.415 20.165 13.054 19.998 14.599 19.484C15.1331 19.3064 15.6217 19.0138 16.0303 18.6267C16.439 18.2397 16.7577 17.7677 16.964 17.244L18.673 12.901C18.8606 12.4244 18.9148 11.9056 18.8297 11.4004C18.7445 10.8953 18.5233 10.4229 18.1898 10.0341C17.8563 9.6453 17.4232 9.35474 16.9369 9.19368C16.4506 9.03261 15.9296 9.00714 15.43 9.12L11.532 9.998L12.692 5.499C12.7452 5.29215 12.7504 5.07586 12.7072 4.86668C12.664 4.65751 12.5735 4.461 12.4426 4.29219C12.3117 4.12339 12.144 3.98677 11.9522 3.89279C11.7603 3.79881 11.5506 3.74997 11.337 3.75Z" fill="#35C670"/>
</g>
</svg>
