<svg width="24" height="24" viewBox="0 0 24 24" fill="none" xmlns="http://www.w3.org/2000/svg">
<g id="akar-icons:comment">
<path id="Vector" d="M19.4673 16.6742C20.7459 14.7053 21.2503 12.3327 20.883 10.014C20.5158 7.69524 19.303 5.5946 17.4786 4.11717C15.6541 2.63974 13.3473 1.89017 11.0028 2.01303C8.65842 2.13588 6.44251 3.12245 4.78248 4.78248C3.12245 6.44251 2.13588 8.65842 2.01303 11.0028C1.89017 13.3473 2.63974 15.6541 4.11717 17.4786C5.5946 19.303 7.69524 20.5158 10.014 20.883C12.3327 21.2503 14.7053 20.7459 16.6742 19.4673L20.9998 20.9998L19.4673 16.6742Z" stroke="white" stroke-width="2" stroke-linecap="round" stroke-linejoin="round"/>
<circle id="Ellipse 1589" cx="7.5" cy="11.5" r="1.5" fill="white"/>
<circle id="Ellipse 1590" cx="11.5" cy="11.5" r="1.5" fill="white"/>
<circle id="Ellipse 1591" cx="15.5" cy="11.5" r="1.5" fill="white"/>
</g>
</svg>
