<svg width="112" height="113" viewBox="0 0 112 113" fill="none" xmlns="http://www.w3.org/2000/svg">
<g id="Group 18454">
<path id="Vector" d="M56 106.948C56 110.163 58.6011 112.8 61.7835 112.472C89.9939 109.564 112 85.6146 112 56.5001C112 27.3857 89.9939 3.43644 61.7835 0.527912C58.6011 0.198059 56 2.83689 56 6.05199V21.5745C56 24.7896 58.6185 27.3353 61.7564 27.9698C74.9956 30.6532 84.9655 42.4057 84.9655 56.5001C84.9655 70.5946 74.9956 82.3471 61.7564 85.0305C58.6185 85.665 56 88.2126 56 91.4258V106.948ZM38.6207 11.0153C38.6207 7.05707 34.7644 4.2669 31.2326 6.019C12.7275 15.2025 0 34.3573 0 56.5001C0 78.643 12.7275 97.7978 31.2326 106.981C34.7644 108.733 38.6207 105.943 38.6207 101.985V11.0153Z" fill="#3F75FF"/>
</g>
</svg>
