<svg width="24" height="24" viewBox="0 0 24 24" fill="none" xmlns="http://www.w3.org/2000/svg">
<g id="Avocado">
<path id="Vector" d="M12 21.0086C12 21.5828 12.4645 22.0536 13.0328 21.9951C18.0703 21.4757 22 17.199 22 12C22 6.80102 18.0703 2.52436 13.0328 2.00498C12.4645 1.94608 12 2.4173 12 2.99143V5.7633C12 6.33743 12.4676 6.79202 13.0279 6.90532C15.3921 7.3845 17.1724 9.48316 17.1724 12C17.1724 14.5169 15.3921 16.6155 13.0279 17.0947C12.4676 17.208 12 17.663 12 18.2367V21.0086ZM8.89655 3.87773C8.89655 3.17091 8.20793 2.67266 7.57724 2.98554C4.27276 4.62545 2 8.04594 2 12C2 15.9541 4.27276 19.3746 7.57724 21.0145C8.20793 21.3274 8.89655 20.8291 8.89655 20.1223V3.87808V3.87773Z" fill="#3F75FF"/>
</g>
</svg>
