<svg width="14" height="14" viewBox="0 0 14 14" fill="none" xmlns="http://www.w3.org/2000/svg">
<g id="Group">
<path id="Vector" d="M7.99964 0C7.73442 0 7.48007 0.105358 7.29253 0.292897C7.10499 0.480436 6.99963 0.734793 6.99963 1.00001C6.99963 1.26523 7.10499 1.51959 7.29253 1.70713C7.48007 1.89467 7.73442 2.00003 7.99964 2.00003H10.5857L4.2926 8.29311C4.19709 8.38536 4.1209 8.4957 4.06849 8.61771C4.01608 8.73971 3.9885 8.87093 3.98734 9.00372C3.98619 9.1365 4.01149 9.26818 4.06177 9.39108C4.11205 9.51397 4.18631 9.62563 4.2802 9.71952C4.3741 9.81341 4.48575 9.88767 4.60865 9.93795C4.73154 9.98823 4.86323 10.0135 4.99601 10.0124C5.12879 10.0112 5.26001 9.98364 5.38202 9.93123C5.50402 9.87882 5.61437 9.80264 5.70661 9.70713L11.9997 3.41404V6.00008C11.9997 6.2653 12.1051 6.51965 12.2926 6.70719C12.4801 6.89473 12.7345 7.00009 12.9997 7.00009C13.2649 7.00009 13.5193 6.89473 13.7068 6.70719C13.8944 6.51965 13.9997 6.2653 13.9997 6.00008V1.00001C13.9997 0.734793 13.8944 0.480436 13.7068 0.292897C13.5193 0.105358 13.2649 0 12.9997 0H7.99964Z" fill="#3F75FF"/>
<path id="Vector_2" d="M2.00003 1.99951C1.46959 1.99951 0.960872 2.21023 0.585794 2.58531C0.210716 2.96038 0 3.4691 0 3.99954V11.9996C0 12.5301 0.210716 13.0388 0.585794 13.4139C0.960872 13.789 1.46959 13.9997 2.00003 13.9997H10.0001C10.5306 13.9997 11.0393 13.789 11.4144 13.4139C11.7894 13.0388 12.0002 12.5301 12.0002 11.9996V8.9996C12.0002 8.73438 11.8948 8.48003 11.7073 8.29249C11.5197 8.10495 11.2654 7.99959 11.0001 7.99959C10.7349 7.99959 10.4806 8.10495 10.293 8.29249C10.1055 8.48003 10.0001 8.73438 10.0001 8.9996V11.9996H2.00003V3.99954H5.00006C5.26529 3.99954 5.51964 3.89418 5.70718 3.70664C5.89472 3.5191 6.00008 3.26474 6.00008 2.99952C6.00008 2.7343 5.89472 2.47995 5.70718 2.29241C5.51964 2.10487 5.26529 1.99951 5.00006 1.99951H2.00003Z" fill="#3F75FF"/>
</g>
</svg>
