<svg width="24" height="24" viewBox="0 0 24 24" fill="none" xmlns="http://www.w3.org/2000/svg">
<g id="Avocado">
<g id="Union">
<path d="M3.89191 3H10.2974C10.5865 3 10.8261 3.2157 10.8455 3.49338L11.4692 12.425C11.4906 12.7304 11.239 12.9894 10.9211 12.9894H8.64879C8.3163 12.9894 8.06002 13.2715 8.10433 13.5887L9.05522 20.3968C9.13501 20.9681 8.34279 21.2326 8.03794 20.7366L2.07676 11.0365C1.90243 10.7528 2.03719 10.3864 2.3581 10.2715L4.7374 9.41976C5.01299 9.3211 5.15903 9.03105 5.06873 8.76167L3.36909 3.69126C3.25462 3.34976 3.51916 3 3.89191 3Z" fill="#3F75FF"/>
<path d="M13.6869 20.9956C13.1601 21.0479 12.7295 20.6276 12.7295 20.1153V17.6416C12.7295 17.1295 13.1629 16.7235 13.6824 16.6224C15.8741 16.1947 17.5246 14.3218 17.5246 12.0757C17.5246 9.82958 15.8741 7.95668 13.6824 7.52903C13.1629 7.42792 12.7295 7.02223 12.7295 6.50987V4.03616C12.7295 3.52379 13.1601 3.10326 13.6869 3.15583C18.357 3.61934 22 7.43596 22 12.0757C22 16.7155 18.357 20.5321 13.6869 20.9956Z" fill="#3F75FF"/>
</g>
</g>
</svg>
