<svg width="84" height="84" viewBox="0 0 84 84" fill="none" xmlns="http://www.w3.org/2000/svg">
<g id="Frame 18914">
<g id="Rectangle 940">
<rect x="12" y="12" width="60" height="60" rx="18" fill="#36CD72"/>
<rect x="6" y="6" width="72" height="72" rx="24" stroke="#36CD72" stroke-opacity="0.05" stroke-width="12"/>
</g>
<g id="Rectangle 941">
<rect x="12" y="12" width="60" height="60" rx="18" fill="#36CD72"/>
<rect x="9" y="9" width="66" height="66" rx="21" stroke="#4EE089" stroke-opacity="0.1" stroke-width="6"/>
</g>
<path id="Vector" d="M42 40C45.3137 40 48 37.3137 48 34C48 30.6863 45.3137 28 42 28C38.6863 28 36 30.6863 36 34C36 37.3137 38.6863 40 42 40Z" stroke="white" stroke-width="2"/>
<path id="Vector_2" d="M53.9955 52.2222C54 51.9853 54 51.7441 54 51.5C54 47.9106 48.627 45 42 45C35.373 45 30 47.9106 30 51.5C30 55.0894 30 58 42 58C45.3465 58 47.76 57.7732 49.5 57.3688" stroke="white" stroke-width="2" stroke-linecap="round"/>
</g>
</svg>
