<svg width="24" height="24" viewBox="0 0 24 24" fill="none" xmlns="http://www.w3.org/2000/svg">
<g id="Frame 18943">
<path id="Vector" d="M12.4923 4.00105C12.4929 4.00075 12.4936 4.0006 12.4943 4.00059C16.0865 3.95342 19 6.74979 19 10.1612C19 12.0121 18.0833 13.5281 16.835 14.7143C15.8162 15.6076 15.1627 16.8514 14.8367 18.1483C14.7153 18.6313 14.2998 19 13.8017 19H11.2142C10.7136 19 10.2964 18.6278 10.1773 18.1416C9.86589 16.8704 9.22671 15.571 8.17503 14.7143C6.53253 13.3885 5.74571 11.6435 6.07291 9.38783C6.47912 6.60362 8.85502 4.36476 11.7663 4.05805C12.0064 4.02623 12.2481 4.00736 12.4904 4.00151C12.491 4.00149 12.4917 4.00134 12.4923 4.00105V4.00105Z" stroke="white" stroke-width="2" stroke-linejoin="round"/>
<path id="Vector_2" d="M9 10C9.21404 8.43284 10.466 7.17264 12 7" stroke="white" stroke-width="2" stroke-linecap="round" stroke-linejoin="round"/>
<path id="Vector 110" d="M11 22H14" stroke="white" stroke-width="2" stroke-linecap="round"/>
<path id="Vector 111" d="M12 23H13" stroke="white" stroke-width="2" stroke-linecap="round"/>
<circle id="Ellipse 1595" cx="13" cy="1" r="1" fill="white"/>
<circle id="Ellipse 1596" cx="20" cy="4" r="1" fill="white"/>
<circle id="Ellipse 1602" cx="5" cy="4" r="1" fill="white"/>
<circle id="Ellipse 1599" cx="5" cy="17" r="1" fill="white"/>
<circle id="Ellipse 1598" cx="22" cy="10" r="1" fill="white"/>
<circle id="Ellipse 1601" cx="20" cy="17" r="1" fill="white"/>
<circle id="Ellipse 1600" cx="2" cy="10" r="1" fill="white"/>
</g>
</svg>
