<svg width="25" height="24" viewBox="0 0 25 24" fill="none" xmlns="http://www.w3.org/2000/svg">
<g id="tabler:share">
<path id="Vector" d="M9.06667 10.8444L14.9333 7.82222M9.06667 13.1556L14.9333 16.1778M4 12C4 12.7072 4.28095 13.3855 4.78105 13.8856C5.28115 14.3857 5.95942 14.6667 6.66667 14.6667C7.37391 14.6667 8.05219 14.3857 8.55229 13.8856C9.05238 13.3855 9.33333 12.7072 9.33333 12C9.33333 11.2928 9.05238 10.6145 8.55229 10.1144C8.05219 9.61428 7.37391 9.33333 6.66667 9.33333C5.95942 9.33333 5.28115 9.61428 4.78105 10.1144C4.28095 10.6145 4 11.2928 4 12ZM14.6667 6.66667C14.6667 7.37391 14.9476 8.05219 15.4477 8.55229C15.9478 9.05238 16.6261 9.33333 17.3333 9.33333C18.0406 9.33333 18.7189 9.05238 19.219 8.55229C19.719 8.05219 20 7.37391 20 6.66667C20 5.95942 19.719 5.28115 19.219 4.78105C18.7189 4.28095 18.0406 4 17.3333 4C16.6261 4 15.9478 4.28095 15.4477 4.78105C14.9476 5.28115 14.6667 5.95942 14.6667 6.66667ZM14.6667 17.3333C14.6667 18.0406 14.9476 18.7189 15.4477 19.219C15.9478 19.719 16.6261 20 17.3333 20C18.0406 20 18.7189 19.719 19.219 19.219C19.719 18.7189 20 18.0406 20 17.3333C20 16.6261 19.719 15.9478 19.219 15.4477C18.7189 14.9476 18.0406 14.6667 17.3333 14.6667C16.6261 14.6667 15.9478 14.9476 15.4477 15.4477C14.9476 15.9478 14.6667 16.6261 14.6667 17.3333Z" stroke="white" stroke-width="1.5" stroke-linecap="round" stroke-linejoin="round"/>
</g>
</svg>
