<svg width="84" height="84" viewBox="0 0 84 84" fill="none" xmlns="http://www.w3.org/2000/svg">
<rect x="12" y="12" width="60" height="60" rx="18" fill="#F2C94C"/>
<rect x="6" y="6" width="72" height="72" rx="24" stroke="#FFD75F" stroke-opacity="0.03" stroke-width="12"/>
<rect x="12" y="12" width="60" height="60" rx="18" fill="#F2C94C"/>
<rect x="9" y="9" width="66" height="66" rx="21" stroke="#FFD75F" stroke-opacity="0.08" stroke-width="6"/>
<path d="M45.4 53H38.7C38.1 53 37.7 53.5 37.7 54C37.7 54.6 38.2 55 38.7 55H45.4C46 55 46.4 54.5 46.4 54C46.4 53.5 46 53 45.4 53ZM45.4 56.1H38.7C38.1 56.1 37.7 56.6 37.7 57.1C37.7 57.7 38.2 58.1 38.7 58.1H45.4C46 58.1 46.4 57.6 46.4 57.1C46.4 56.5 46 56.1 45.4 56.1ZM43.9 59H40.2C39.6 59 39.2 59.5 39.2 60C39.2 60.6 39.7 61 40.2 61H43.9C44.5 61 44.9 60.5 44.9 60C44.9 59.4 44.4 59 43.9 59ZM46.6 39.7C46.6 40.3 47.1 40.7 47.6 40.7C48.2 40.7 48.6 40.2 48.6 39.7C48.6 37 46.9 34.7 44.3 33.9C43.8 33.7 43.2 34 43 34.6C42.8 35.1 43.1 35.7 43.7 35.9C45.5 36.4 46.6 37.9 46.6 39.7ZM42 29.9C36.3 29.9 31.7 34.5 31.7 40.1C31.7 44.1 33.7 46.5 35.2 48.2C36.1 49.2 36.8 50.1 36.9 50.9C37 51.4 37.4 51.8 37.9 51.8H38C38.6 51.7 39 51.2 38.9 50.7C38.7 49.2 37.8 48.1 36.7 46.9C35.3 45.2 33.7 43.4 33.7 40.1C33.7 35.6 37.4 31.9 42 31.9C46.6 31.9 50.3 35.6 50.3 40.1C50.3 43.4 48.7 45.3 47.3 46.9C46.3 48.1 45.3 49.2 45.1 50.7C45 51.3 45.4 51.8 46 51.8C46.6 51.9 47.1 51.5 47.1 50.9C47.2 50 47.9 49.2 48.8 48.2C50.3 46.5 52.3 44.1 52.3 40.1C52.3 34.5 47.7 29.9 42 29.9ZM42 28.6C42.6 28.6 43 28.1 43 27.6V25C43 24.4 42.5 24 42 24C41.4 24 41 24.5 41 25V27.6C41 28.2 41.4 28.6 42 28.6ZM32.1 31.5C32.3 31.7 32.6 31.8 32.8 31.8C33.1 31.8 33.3 31.7 33.5 31.5C33.9 31.1 33.9 30.5 33.5 30.1L32 28.5C31.6 28.1 31 28.1 30.6 28.5C30.2 28.9 30.2 29.5 30.6 29.9L32.1 31.5ZM51.9 48.2C51.5 47.8 50.9 47.8 50.5 48.2C50.1 48.6 50.1 49.2 50.5 49.6L52.1 51.2C52.3 51.4 52.6 51.5 52.8 51.5C53 51.5 53.3 51.4 53.5 51.2C53.9 50.8 53.9 50.2 53.5 49.8L51.9 48.2ZM29.1 39H26.9C26.4 39 26 39.4 26 40C26 40.6 26.4 41 26.9 41H29.1C29.6 41 30 40.6 30 40C30 39.4 29.6 39 29.1 39ZM57.1 39H54.9C54.4 39 54 39.4 54 40C54 40.6 54.4 41 54.9 41H57.1C57.6 41 58 40.6 58 40C58 39.4 57.6 39 57.1 39ZM32.1 48.2L30.5 49.8C30.1 50.2 30.1 50.8 30.5 51.2C30.7 51.4 31 51.5 31.2 51.5C31.5 51.5 31.7 51.4 31.9 51.2L33.5 49.6C33.9 49.2 33.9 48.6 33.5 48.2C33.2 47.8 32.5 47.8 32.1 48.2ZM52 28.5L50.4 30.1C50 30.5 50 31.1 50.4 31.5C50.6 31.7 50.9 31.8 51.1 31.8C51.4 31.8 51.6 31.7 51.8 31.5L53.4 30C53.8 29.6 53.8 29 53.4 28.6C53 28.1 52.4 28.1 52 28.5Z" fill="white"/>
</svg>
