<svg width="128" height="128" viewBox="0 0 128 128" fill="none" xmlns="http://www.w3.org/2000/svg">
<path fill-rule="evenodd" clip-rule="evenodd" d="M65.4061 81.134V81.2376C65.3762 81.7184 65.2869 82.1937 65.1401 82.6528C63.868 86.7893 49.6147 94.3454 35.4021 98.0872C33.5814 98.4039 30.6054 99.9544 26.4739 102.739L31.5539 107.003C33.1382 106.16 34.9235 105.566 36.9099 105.22C51.1225 101.479 67.364 90.261 68.6384 86.1262C69.67 82.746 67.5456 81.3481 65.4061 81.134ZM67.0944 50.083L67.1014 50.1038C67.6172 52.0763 67.4787 54.4908 66.5245 55.8974C60.8988 63.1108 56.7362 68.676 54.0369 72.5932C52.0028 75.5441 48.448 78.738 46.6625 83.3755C46.2744 84.3881 46.2744 85.8512 46.6625 87.7649C48.017 86.6076 49.2768 85.5507 50.4419 84.5941C53.0811 81.1328 55.4647 77.8589 57.5928 74.7722C60.2925 70.8566 64.3714 65.0641 69.8295 57.3949C71.3804 55.11 70.9641 52.1353 68.898 50.7513C68.3593 50.3903 67.7423 50.1613 67.0974 50.083H67.0944Z" fill="#152E6D"/>
<path d="M75.1983 88.0116C74.8251 88.0114 74.466 88.1537 74.1954 88.4091C73.9247 88.6645 73.7631 89.0135 73.744 89.3839C73.7248 89.7544 73.8496 90.118 74.0926 90.3996C74.3355 90.6812 74.678 90.8593 75.0493 90.8971L75.1983 90.9046H82.9598C83.3331 90.9048 83.6921 90.7625 83.9628 90.5071C84.2334 90.2517 84.395 89.9027 84.4142 89.5322C84.4333 89.1618 84.3085 88.7982 84.0656 88.5166C83.8227 88.235 83.4802 88.0569 83.1089 88.0191L82.9598 88.0116H75.1983ZM61.3164 51.3365L56.1216 58.6918C55.7141 57.6618 55.0266 56.7303 54.0695 56.088C52.015 54.7104 48.937 54.8272 47.038 56.0452C46.652 54.9754 45.9784 54.0108 45.019 53.3674C42.7677 51.8584 39.1641 52.3005 37.3378 53.9159C36.9303 52.9103 36.2719 52.0106 35.366 51.403C32.8842 49.7395 28.8334 50.4773 27.261 52.5197L27.2138 52.5851L26.549 53.309C23.1914 57.0155 20.3591 60.7958 18.0522 64.6497L17.566 65.4765L16.8267 66.7686L16.1438 67.9836L15.5325 69.1021C12.7881 74.2025 11.4905 77.7528 9.73696 84.5642C9.368 86.1061 8.90688 87.6247 8.35605 89.1121C7.53276 88.9691 6.68645 89.0363 5.89639 89.3072C5.10634 89.5781 4.39841 90.0439 3.83896 90.661L3.6678 90.8606L1.10275 94.0082C0.303719 94.989 -0.0854645 96.2374 0.0157471 97.4953C0.116959 98.7532 0.700813 99.9243 1.6465 100.766L1.83453 100.926L21.6867 116.904C22.6733 117.698 23.9294 118.085 25.1951 117.984C26.4607 117.884 27.6391 117.304 28.4865 116.364L28.6465 116.176L31.2081 113.029C31.7343 112.384 32.0874 111.617 32.2346 110.8C32.3819 109.983 32.3183 109.142 32.0499 108.355L32.1437 108.319L32.2368 108.274C33.5354 107.582 34.9928 107.072 36.6089 106.743L37.1538 106.641L37.2755 106.614C50.6347 103.097 68.3781 91.8842 70.021 86.5431C71.48 81.7985 67.9566 79.1369 63.7877 79.7242C62.4784 79.9082 59.4121 81.0341 54.4427 83.1443L52.8388 83.8305L53.0443 83.5574C54.9018 81.0879 56.6229 78.7153 58.2076 76.4394L61.2267 72.0912L65.164 66.4873C66.9012 64.0271 68.8596 61.2656 71.0393 58.2028C73.0186 55.2826 72.4784 51.4025 69.7166 49.5509C67.024 47.748 63.3225 48.6084 61.3164 51.3388V51.3365ZM8.65238 92.2805L8.79385 92.3847L28.646 108.363C29.0426 108.682 29.3045 109.137 29.3799 109.638C29.4554 110.139 29.3389 110.651 29.0535 111.071L28.9487 111.211L26.3871 114.359C26.0664 114.753 25.6086 115.014 25.1041 115.089C24.5997 115.164 24.0853 115.048 23.6626 114.764L23.5211 114.66L3.66897 98.6817C3.27235 98.3629 3.01045 97.9079 2.935 97.4065C2.85954 96.9052 2.97603 96.3939 3.26144 95.9738L3.36624 95.8332L5.93072 92.6856C6.25166 92.2925 6.70907 92.0332 7.21282 91.9586C7.71658 91.8841 8.23016 91.9998 8.65238 92.2828V92.2805ZM68.0888 51.951C69.4563 52.8681 69.7457 54.9366 68.6442 56.5602L62.9837 64.5403L59.6828 69.2311C58.8678 70.396 58.1202 71.4672 57.4403 72.4447L56.3923 73.9554C53.7097 77.8468 50.6145 82.0424 47.1067 86.5425C46.1787 87.7327 47.47 89.3643 48.8532 88.7487L52.2514 87.249L54.5183 86.2653C59.8359 83.9845 63.1199 82.7428 64.197 82.5912C66.5198 82.2637 67.9601 83.3526 67.2377 85.7C65.9866 89.7676 49.4016 100.287 36.9681 103.703L36.5723 103.81L36.0757 103.902C34.3606 104.246 32.7817 104.773 31.3391 105.483L30.8634 105.726C30.6975 105.814 30.5504 105.933 30.4303 106.077L10.97 90.4151L10.9799 90.3902C11.6147 88.7169 12.1418 87.0052 12.5582 85.2655L12.9267 83.8583C14.7978 76.8404 16.2311 73.5967 20.0874 66.9167C22.3758 62.9582 25.2509 59.0671 28.7129 55.2433L29.4115 54.4795L29.5489 54.3059C30.1258 53.4559 32.518 52.9878 33.7347 53.8014C34.8525 54.5536 35.2041 56.6117 34.6814 57.5843L34.6115 57.7L31.7548 61.9094C31.5459 62.2169 31.4639 62.5923 31.5256 62.9582C31.5874 63.3241 31.7882 63.6523 32.0866 63.8752C32.385 64.0981 32.7582 64.1985 33.1289 64.1557C33.4997 64.1129 33.8398 63.9301 34.0788 63.6452L34.1679 63.5295L36.039 60.7742L36.1228 60.6619L39.1222 56.2385C39.6886 55.4041 42.1629 54.9453 43.3883 55.7669C44.4875 56.5035 44.799 58.5216 44.2569 59.514L44.1848 59.6326L39.5274 66.496L39.5006 66.5406L38.8515 67.4959C38.6439 67.8033 38.5629 68.1781 38.6251 68.5431C38.6872 68.9081 38.8878 69.2356 39.1856 69.458C39.4833 69.6805 39.8556 69.781 40.2256 69.7389C40.5957 69.6968 40.9355 69.5152 41.1749 69.2317L41.2646 69.1131L48.2879 58.7647C48.8258 57.972 51.1609 57.63 52.4388 58.4869C53.5805 59.2524 53.9344 61.0907 53.4227 62.0402L53.3505 62.1559L45.6809 73.4573L45.6297 73.5383L45.5657 73.6592L45.5074 73.7981L45.4813 73.8825C45.4585 73.9649 45.4431 74.0491 45.4353 74.1342L45.4294 74.2858V74.3437L45.4428 74.475L45.4731 74.6284L45.5144 74.7603L45.5843 74.9223L45.6763 75.0779L45.7601 75.189L45.8556 75.2932L45.9406 75.3713L46.05 75.4558L46.0727 75.4708C46.1287 75.5083 46.187 75.5422 46.2474 75.5721L46.3528 75.6178L46.4692 75.6589L46.6241 75.6947L46.8249 75.7173H46.974L47.1119 75.7023L47.2022 75.6849C47.2784 75.6681 47.3532 75.6453 47.4257 75.6166L47.6004 75.5327L47.7168 75.4587L47.8047 75.3927L47.938 75.2689L47.9962 75.2006L48.1028 75.0583L63.5537 53.1961C64.6831 51.5425 66.7213 51.0345 68.0888 51.951ZM49.8342 18C43.9903 18 39.2334 22.6289 39.0686 28.3941L39.064 28.7042V45.021C39.0639 45.3919 39.2072 45.7486 39.4642 46.0175C39.7212 46.2864 40.0724 46.4469 40.4451 46.4658C40.8178 46.4848 41.1835 46.3607 41.4668 46.1193C41.7501 45.8779 41.9293 45.5375 41.9673 45.1685L41.9748 45.021V28.7042C41.9748 26.68 42.7654 24.7349 44.18 23.2786C45.5946 21.8223 47.5228 20.9687 49.5582 20.8977L49.8342 20.893H117.23C119.267 20.893 121.224 21.6791 122.69 23.0855C124.155 24.492 125.014 26.4089 125.084 28.4323L125.089 28.7042V80.2004C125.09 82.2254 124.3 84.1717 122.886 85.629C121.471 87.0862 119.542 87.9405 117.506 88.0116L117.23 88.0162H88.1918C87.8186 88.016 87.4596 88.1583 87.1889 88.4137C86.9182 88.6691 86.7566 89.0181 86.7375 89.3885C86.7184 89.759 86.8432 90.1226 87.0861 90.4042C87.329 90.6858 87.6715 90.8639 88.0428 90.9017L88.1918 90.9092H117.23C123.074 90.9092 127.831 86.2838 127.995 80.5151L128 80.2004V28.7042C128 22.8962 123.343 18.1684 117.542 18.0046L117.23 18H49.8342Z" fill="#3F75FF"/>
<path fill-rule="evenodd" clip-rule="evenodd" d="M61 77.3275C64.4796 76.4647 67.0732 76.5376 68.7808 77.3275C71.4998 78.586 73.621 81.0904 72.9915 85H116.139C117.693 85 119.184 84.3937 120.283 83.3145C121.382 82.2354 122 80.7717 122 79.2455V29.7545C122 28.2283 121.382 26.7646 120.283 25.6855C119.184 24.6063 117.693 24 116.139 24H115.363C107.5 59.5 90.4239 69.2763 61 77.3275Z" fill="#152E6D"/>
<path fill-rule="evenodd" clip-rule="evenodd" d="M27.7913 109.185L8.38866 93.5665C8.26968 93.471 8.13292 93.3997 7.98621 93.3568C7.83951 93.3138 7.68573 93.3 7.53365 93.3161C7.38157 93.3322 7.23418 93.378 7.09989 93.4507C6.9656 93.5235 6.84704 93.6218 6.751 93.7401L4.57135 96.415C4.47526 96.5332 4.40355 96.6691 4.36032 96.815C4.31709 96.9608 4.3032 97.1136 4.31942 97.2647C4.33563 97.4159 4.38165 97.5624 4.45484 97.6958C4.52803 97.8293 4.62698 97.9471 4.746 98.0426L24.1487 113.659C24.3886 113.852 24.696 113.942 25.0031 113.91C25.3102 113.878 25.5919 113.726 25.7863 113.488L27.966 110.813C28.0621 110.695 28.1338 110.559 28.177 110.413C28.2202 110.267 28.2341 110.114 28.2179 109.963C28.2017 109.812 28.1557 109.666 28.0825 109.532C28.0093 109.399 27.9104 109.281 27.7913 109.185Z" fill="#152E6D"/>
<path d="M109.5 55C109.5 50.3056 113.306 46.5 118 46.5H126.5V63.5H118C113.306 63.5 109.5 59.6944 109.5 55Z" fill="#152E6D" stroke="#3F75FF" stroke-width="3"/>
<circle cx="117" cy="55" r="2" fill="#3F75FF"/>
</svg>
